<?xml version="1.0" encoding="utf-8"?>
<!-- Generator: Adobe Illustrator 18.0.0, SVG Export Plug-In . SVG Version: 6.00 Build 0)  -->
<!DOCTYPE svg PUBLIC "-//W3C//DTD SVG 1.1//EN" "http://www.w3.org/Graphics/SVG/1.1/DTD/svg11.dtd">
<svg version="1.1" id="Capa_1" xmlns="http://www.w3.org/2000/svg" xmlns:xlink="http://www.w3.org/1999/xlink" x="0px" y="0px"
	 viewBox="10.5 1.4 25.3 34.6" enable-background="new 10.5 1.4 25.3 34.6" xml:space="preserve">
<g>
	<g>
		<path fill="#BBBBBB" d="M34.7,29.9c-1.2-2.2-0.9-1.6-1.1-2.7c-0.2-1-0.1-2.1-0.1-3.2c-0.1-1.8-0.2-3.6-0.2-5.1
			c0-1.4-0.6-1.8-0.9-2.7c-0.4-1.3-0.8-2.4-1.4-3.1c-0.7-0.7-1.5-0.3-1.5-0.3c-0.5-1.4-0.7-1.7-1.2-2.4c-0.5-0.7-1.3-0.6-1.3-0.6
			s-0.4-2-1.3-3c-0.5-0.5-1.5-0.5-1.8-0.3c-0.3,0.1-0.6,0.6-1,0.8C22,8,21.1,9,21.1,9s-0.1-0.5-0.6-1.3c-0.3-0.5-0.8-1.2-1.2-1.9
			c-0.4-0.7-1.9-4-3.5-3.7c-2,0.5,0.1,5.1,0.1,5.1s0.1,0.4,0.2,0.6c0.3,0.9,0.7,2,1,2.9c0.5,1.2,0.9,2.2,1.1,3.4
			c0.2,0.9,0.1,2,0,2.8c0,0.7-0.1,1.5-0.2,2.1c-0.1,0.8-0.4,1.4-0.5,1.7c-0.1,0.3-0.1,0.5-0.1,0.5s-0.2,0-0.4,0.1
			c-0.2,0.1-0.4,0.3-0.4,0.3l-0.4-0.2c0,0,0.1-0.1,0-0.4c-0.1-0.3-0.2-0.6-0.4-1.1c-0.1-0.2-0.1-0.6-0.2-0.8
			c-0.2-0.5-0.4-0.7-0.4-0.7s0.2-0.7-0.1-1.4c-0.3-0.8-1-1.8-1.7-2.5c-0.6-0.6-1.1-0.7-1.6-0.6c-0.7,0.1-0.9,0.9-0.8,1.7
			c0.1,0.5,0.3,1.1,0.3,1.5c0.1,0.8-0.3,1.7-0.3,2.3c0,0.7,0.4,1.1,0.7,2.6c0.1,0.5,0.5,1.1,0.6,1.7c0.2,0.9,0.4,1.8,0.5,2
			c0.6,1.2,2.8,2.6,4.8,4.5c1.2,1.1,2.5,1.1,3.5,2c0.6,0.6,0.9,1.6,1.5,2.5c2.5,3.7,9.8,0.1,11.7-2.7C35,31.1,34.9,30.3,34.7,29.9z"
			/>
	</g>
</g>
</svg>
